<svg width="353" height="129" viewBox="0 0 353 129" fill="none" xmlns="http://www.w3.org/2000/svg">
<g filter="url(#filter0_d_1_5)">
<rect x="4" width="345" height="121" rx="20" fill="#1E1E1E"/>
<path d="M61.456 84.64C58.64 84.64 56.1653 84.1067 54.032 83.04C51.9413 81.9733 50.32 80.4373 49.168 78.432C48.016 76.384 47.44 73.9733 47.44 71.2V61.6C47.44 58.784 48.016 56.3733 49.168 54.368C50.32 52.3627 51.9413 50.8267 54.032 49.76C56.1653 48.6933 58.64 48.16 61.456 48.16C65.5093 48.16 68.7733 49.248 71.248 51.424C73.7227 53.6 75.024 56.5653 75.152 60.32H69.392C69.264 58.0587 68.496 56.3307 67.088 55.136C65.7227 53.8987 63.8453 53.28 61.456 53.28C58.9387 53.28 56.9333 54.0053 55.44 55.456C53.9467 56.864 53.2 58.8907 53.2 61.536V71.2C53.2 73.8453 53.9467 75.8933 55.44 77.344C56.9333 78.7947 58.9387 79.52 61.456 79.52C63.8453 79.52 65.7227 78.9013 67.088 77.664C68.496 76.4267 69.264 74.6987 69.392 72.48H75.152C75.024 76.2347 73.7227 79.2 71.248 81.376C68.7733 83.552 65.5093 84.64 61.456 84.64ZM99.575 84.512C96.759 84.512 94.327 83.9787 92.279 82.912C90.231 81.8453 88.631 80.3093 87.479 78.304C86.3697 76.256 85.815 73.8453 85.815 71.072V61.728C85.815 58.912 86.3697 56.5013 87.479 54.496C88.631 52.4907 90.231 50.9547 92.279 49.888C94.327 48.8213 96.759 48.288 99.575 48.288C102.391 48.288 104.823 48.8213 106.871 49.888C108.919 50.9547 110.498 52.4907 111.607 54.496C112.759 56.5013 113.335 58.8907 113.335 61.664V71.072C113.335 73.8453 112.759 76.256 111.607 78.304C110.498 80.3093 108.919 81.8453 106.871 82.912C104.823 83.9787 102.391 84.512 99.575 84.512ZM99.575 79.392C102.092 79.392 104.055 78.688 105.463 77.28C106.871 75.872 107.575 73.8027 107.575 71.072V61.728C107.575 58.9973 106.871 56.928 105.463 55.52C104.055 54.112 102.092 53.408 99.575 53.408C97.1003 53.408 95.1377 54.112 93.687 55.52C92.279 56.928 91.575 58.9973 91.575 61.728V71.072C91.575 73.8027 92.279 75.872 93.687 77.28C95.1377 78.688 97.1003 79.392 99.575 79.392ZM135.902 84.64C132.403 84.64 129.566 83.4667 127.39 81.12C125.257 78.7733 124.19 75.5947 124.19 71.584V61.28C124.19 57.2267 125.257 54.0267 127.39 51.68C129.523 49.3333 132.361 48.16 135.902 48.16C138.803 48.16 141.129 48.9493 142.878 50.528C144.627 52.1067 145.502 54.2187 145.502 56.864L144.35 55.52H145.63L145.502 47.52V37.28H151.262V84H145.502V77.28H144.35L145.502 75.936C145.502 78.624 144.627 80.7573 142.878 82.336C141.129 83.872 138.803 84.64 135.902 84.64ZM137.822 79.648C140.211 79.648 142.089 78.9013 143.454 77.408C144.819 75.9147 145.502 73.8453 145.502 71.2V61.6C145.502 58.9547 144.819 56.8853 143.454 55.392C142.089 53.8987 140.211 53.152 137.822 53.152C135.39 53.152 133.47 53.8773 132.062 55.328C130.654 56.7787 129.95 58.8693 129.95 61.6V71.2C129.95 73.9307 130.654 76.0213 132.062 77.472C133.47 78.9227 135.39 79.648 137.822 79.648ZM176.325 84.64C173.552 84.64 171.12 84.0853 169.029 82.976C166.981 81.8667 165.381 80.3093 164.229 78.304C163.12 76.256 162.565 73.888 162.565 71.2V61.6C162.565 58.8693 163.12 56.5013 164.229 54.496C165.381 52.4907 166.981 50.9333 169.029 49.824C171.12 48.7147 173.552 48.16 176.325 48.16C179.098 48.16 181.509 48.7147 183.557 49.824C185.648 50.9333 187.248 52.4907 188.357 54.496C189.509 56.5013 190.085 58.8693 190.085 61.6V67.808H168.197V71.2C168.197 73.9733 168.901 76.1067 170.309 77.6C171.717 79.0507 173.722 79.776 176.325 79.776C178.544 79.776 180.336 79.392 181.701 78.624C183.066 77.8133 183.898 76.6187 184.197 75.04H189.957C189.573 77.984 188.122 80.3307 185.605 82.08C183.13 83.7867 180.037 84.64 176.325 84.64ZM184.453 63.968V61.6C184.453 58.8267 183.749 56.6933 182.341 55.2C180.976 53.7067 178.97 52.96 176.325 52.96C173.722 52.96 171.717 53.7067 170.309 55.2C168.901 56.6933 168.197 58.8267 168.197 61.6V63.456H184.901L184.453 63.968ZM201.58 84V37.28H207.34V63.328H214.124L224.364 48.8H230.956L219.116 65.568L231.148 84H224.428L214.188 68.32H207.34V84H201.58ZM253.075 84.512C250.259 84.512 247.827 83.9787 245.779 82.912C243.731 81.8453 242.131 80.3093 240.979 78.304C239.87 76.256 239.315 73.8453 239.315 71.072V61.728C239.315 58.912 239.87 56.5013 240.979 54.496C242.131 52.4907 243.731 50.9547 245.779 49.888C247.827 48.8213 250.259 48.288 253.075 48.288C255.891 48.288 258.323 48.8213 260.371 49.888C262.419 50.9547 263.998 52.4907 265.107 54.496C266.259 56.5013 266.835 58.8907 266.835 61.664V71.072C266.835 73.8453 266.259 76.256 265.107 78.304C263.998 80.3093 262.419 81.8453 260.371 82.912C258.323 83.9787 255.891 84.512 253.075 84.512ZM253.075 79.392C255.592 79.392 257.555 78.688 258.963 77.28C260.371 75.872 261.075 73.8027 261.075 71.072V61.728C261.075 58.9973 260.371 56.928 258.963 55.52C257.555 54.112 255.592 53.408 253.075 53.408C250.6 53.408 248.638 54.112 247.187 55.52C245.779 56.928 245.075 58.9973 245.075 61.728V71.072C245.075 73.8027 245.779 75.872 247.187 77.28C248.638 78.688 250.6 79.392 253.075 79.392ZM278.138 84V48.8H283.898V55.52H285.114L283.898 56.864C283.898 54.0907 284.73 51.9573 286.394 50.464C288.058 48.928 290.362 48.16 293.306 48.16C296.847 48.16 299.663 49.248 301.754 51.424C303.845 53.6 304.89 56.5653 304.89 60.32V84H299.13V60.96C299.13 58.4427 298.447 56.5227 297.082 55.2C295.759 53.8347 293.946 53.152 291.642 53.152C289.253 53.152 287.354 53.8773 285.946 55.328C284.581 56.7787 283.898 58.8693 283.898 61.6V84H278.138Z" fill="#D9D9D9"/>
</g>
<defs>
<filter id="filter0_d_1_5" x="0" y="0" width="353" height="129" filterUnits="userSpaceOnUse" color-interpolation-filters="sRGB">
<feFlood flood-opacity="0" result="BackgroundImageFix"/>
<feColorMatrix in="SourceAlpha" type="matrix" values="0 0 0 0 0 0 0 0 0 0 0 0 0 0 0 0 0 0 127 0" result="hardAlpha"/>
<feOffset dy="4"/>
<feGaussianBlur stdDeviation="2"/>
<feComposite in2="hardAlpha" operator="out"/>
<feColorMatrix type="matrix" values="0 0 0 0 0 0 0 0 0 0 0 0 0 0 0 0 0 0 0.25 0"/>
<feBlend mode="normal" in2="BackgroundImageFix" result="effect1_dropShadow_1_5"/>
<feBlend mode="normal" in="SourceGraphic" in2="effect1_dropShadow_1_5" result="shape"/>
</filter>
</defs>
</svg>
